<svg width="170" height="170" viewBox="0 0 170 170" fill="none" xmlns="http://www.w3.org/2000/svg">
<path fill-rule="evenodd" clip-rule="evenodd" d="M91.993 16.6161C91.0823 16.5305 90.3029 16.2463 89.6545 15.7635C89.0071 15.2714 88.5282 14.6311 88.218 13.8426C87.9086 13.0448 87.8007 12.1488 87.8942 11.1545C87.9876 10.1602 88.2607 9.29999 88.7133 8.57383C89.1752 7.84854 89.7794 7.30537 90.5257 6.94431C91.2814 6.58412 92.1425 6.44945 93.1089 6.5403C94.2054 6.64337 95.0912 6.99381 95.7662 7.59161C96.4505 8.19028 96.8558 8.96428 96.9822 9.91361L95.6302 9.78651C95.5551 9.18886 95.2875 8.69498 94.8273 8.30487C94.3764 7.91563 93.77 7.68519 93.008 7.61356C92.2925 7.5463 91.6546 7.65039 91.0944 7.92583C90.535 8.19198 90.0787 8.60844 89.7254 9.1752C89.3815 9.74283 89.1706 10.4402 89.0929 11.2672C89.0151 12.0942 89.0923 12.8186 89.3245 13.4404C89.5567 14.0622 89.913 14.5597 90.3935 14.933C90.8749 15.297 91.4547 15.5109 92.1331 15.5746C93.1738 15.6725 93.9874 15.4443 94.5739 14.8901C95.1612 14.3265 95.5418 13.5186 95.7157 12.4663L92.9001 12.2016L92.9866 11.2817L97.0009 11.659L96.5109 16.872L95.4376 16.7711L95.4907 15.159C95.0843 15.6927 94.6112 16.0888 94.0713 16.3474C93.5314 16.606 92.8386 16.6956 91.993 16.6161ZM72.1497 7.37295L73.6878 17.0515L74.8492 16.8669L73.3111 7.18838L72.1497 7.37295ZM58.2922 21.704C57.6328 21.9897 57.0071 22.1185 56.415 22.0902C55.823 22.062 55.3014 21.8913 54.8504 21.5781C54.3994 21.265 54.0514 20.8258 53.8064 20.2606L54.9369 19.7707C55.089 20.1219 55.3114 20.412 55.604 20.6412C55.8929 20.8619 56.2305 20.9953 56.6167 21.0416C57.0078 21.0755 57.4345 20.9923 57.897 20.7919C58.505 20.5284 58.9129 20.1787 59.1207 19.7428C59.3285 19.3069 59.3378 18.8706 59.1485 18.4338C58.9927 18.0742 58.7913 17.8207 58.5443 17.6734C58.2937 17.5175 58.006 17.4286 57.6811 17.4066C57.3648 17.381 57.0131 17.391 56.626 17.4366C56.2475 17.4786 55.8463 17.5151 55.4224 17.5463C54.6248 17.6071 53.9829 17.5343 53.4968 17.3279C53.0069 17.113 52.6377 16.7186 52.389 16.1449C52.1727 15.669 52.1003 15.1968 52.1719 14.7284C52.2399 14.2514 52.4391 13.8192 52.7697 13.4318C53.1051 13.0322 53.5639 12.7062 54.1463 12.4538C54.7201 12.2052 55.2631 12.097 55.7756 12.1292C56.2965 12.1577 56.7543 12.3103 57.1488 12.5869C57.5518 12.8598 57.8616 13.2342 58.078 13.71L56.9476 14.1999C56.8399 13.9516 56.6699 13.7353 56.4376 13.5512C56.2015 13.3585 55.9173 13.2426 55.585 13.2035C55.2613 13.1607 54.9025 13.2247 54.5085 13.3954C54.0167 13.5984 53.668 13.897 53.4625 14.2912C53.2655 14.6817 53.2654 15.1039 53.4621 15.5578C53.6291 15.9432 53.8642 16.1922 54.1673 16.305C54.4791 16.414 54.8616 16.4517 55.3149 16.418C55.7645 16.3757 56.2833 16.3289 56.8714 16.2775C57.3664 16.2461 57.8297 16.2589 58.2613 16.316C58.6929 16.3731 59.0734 16.5235 59.4029 16.7673C59.7408 17.0074 60.0193 17.38 60.2383 17.8853C60.4238 18.3135 60.4888 18.7685 60.4331 19.2504C60.3738 19.7237 60.1691 20.1786 59.8191 20.615C59.4777 21.0478 58.9688 21.4108 58.2922 21.704ZM34.4688 24.6524L40.4793 32.3928L45.2673 28.6749L44.6749 27.9119L40.8157 30.9086L38.6691 28.1442L42.1965 25.4051L41.6126 24.6532L38.0852 27.3922L35.9901 24.6941L39.8493 21.6975L39.2568 20.9345L34.4688 24.6524ZM20.4607 39.8727L28.2073 45.8752L30.0509 43.4959C31.1085 42.131 31.5429 40.8618 31.3541 39.6883C31.1637 38.5017 30.4745 37.4482 29.2867 36.5278C28.0768 35.5903 26.8735 35.1775 25.6769 35.2893C24.4861 35.3938 23.3619 36.1285 22.3043 37.4934L20.4607 39.8727ZM29.2591 42.9178L28.1529 44.3454L21.9556 39.5434L23.0618 38.1158C23.6449 37.3633 24.2334 36.8628 24.8272 36.6145C25.4268 36.3589 26.0332 36.3152 26.6467 36.4835C27.2601 36.6518 27.8914 36.9875 28.5407 37.4906C29.1752 37.9822 29.6505 38.504 29.9667 39.056C30.2755 39.6023 30.3809 40.1976 30.283 40.842C30.1835 41.4733 29.8422 42.1652 29.2591 42.9178ZM108.188 9.66642L104.873 18.8888L105.98 19.2866L108.637 11.8955L110.894 21.0529L112.001 21.4507L115.316 12.2283L114.209 11.8305L111.552 19.2216L109.295 10.0642L108.188 9.66642ZM136.444 39.0032L143.791 32.5185L144.57 33.4003L137.222 39.8849L136.444 39.0032ZM146.189 52.5179C146.198 53.1106 146.365 53.727 146.692 54.3672C147.027 55.0239 147.421 55.5091 147.875 55.8227C148.332 56.1445 148.799 56.3202 149.275 56.3498C149.76 56.3751 150.21 56.2817 150.625 56.0696C151.116 55.8193 151.47 55.518 151.689 55.1656C151.911 54.8215 152.037 54.4323 152.067 53.998C152.097 53.5636 152.081 53.1004 152.019 52.6084C151.93 52.0247 151.851 51.5099 151.781 51.0638C151.719 50.6135 151.732 50.2294 151.821 49.9114C151.915 49.6018 152.149 49.3515 152.523 49.1606C152.963 48.9358 153.385 48.9095 153.787 49.0815C154.193 49.2619 154.513 49.5911 154.747 50.0693C154.942 50.4517 155.028 50.8058 155.006 51.1316C154.988 51.4656 154.89 51.7565 154.712 52.0042C154.543 52.2477 154.338 52.431 154.097 52.554L154.657 53.6514C155.118 53.4055 155.472 53.0729 155.719 52.6535C155.971 52.2424 156.094 51.776 156.09 51.2543C156.09 50.7408 155.948 50.2056 155.664 49.6486C155.375 49.0832 155.021 48.6457 154.601 48.3361C154.194 48.0305 153.75 47.8588 153.27 47.8209C152.797 47.7789 152.331 47.8807 151.869 48.1266C151.312 48.4108 150.942 48.804 150.758 49.3064C150.583 49.8046 150.551 50.4497 150.661 51.2419C150.719 51.663 150.781 52.0612 150.846 52.4363C150.916 52.8198 150.948 53.1701 150.942 53.4874C150.941 53.813 150.87 54.1058 150.73 54.3657C150.599 54.6214 150.359 54.8383 150.009 55.0165C149.585 55.2328 149.149 55.2509 148.701 55.0709C148.253 54.8909 147.879 54.5057 147.577 53.9154C147.348 53.4665 147.239 53.0458 147.248 52.6533C147.27 52.265 147.382 51.9197 147.584 51.6175C147.794 51.3111 148.07 51.0709 148.411 50.897L147.851 49.7996C147.302 50.0795 146.886 50.4544 146.601 50.9242C146.317 51.394 146.18 51.9253 146.189 52.5179ZM154.169 83.521L164.061 81.1374L164.022 82.3968L155.547 84.2499L163.882 86.9167L163.842 88.2181L155.36 90.295L163.704 92.6959L163.665 93.9553L153.954 90.9099L153.996 89.5665L162.156 87.4796L154.142 84.8368L154.169 83.521ZM161.818 103.481L152.406 100.752L152.078 101.881L156.408 103.137L154.992 108.018L150.663 106.762L150.335 107.892L159.748 110.621L160.075 109.491L155.92 108.287L157.335 103.406L161.49 104.61L161.818 103.481ZM146.661 116.556L153.261 124.65L152.628 125.723L142.36 123.837L142.994 122.764L145.619 123.274L147.741 119.682L146.034 117.617L146.661 116.556ZM148.383 120.467L146.617 123.457L151.67 124.426L148.383 120.467ZM140.58 139.698L134.33 133.455L133.499 134.287L139.748 140.53L137.681 142.6L138.364 143.283L143.331 138.311L142.648 137.628L140.58 139.698ZM104.464 151.331L105.505 154.907L110.268 159.848L108.991 160.22L105.253 156.146L104.286 161.59L103.022 161.957L104.376 155.235L103.335 151.66L104.464 151.331ZM89.3528 154.465C88.6117 154.069 87.7608 153.886 86.8 153.917C85.8298 153.947 84.9922 154.184 84.2874 154.627C83.5734 155.079 83.0281 155.695 82.6514 156.472C82.2748 157.25 82.1023 158.138 82.1342 159.136C82.1661 160.134 82.3947 161.005 82.82 161.748C83.2455 162.5 83.829 163.079 84.5703 163.485C85.3023 163.891 86.1534 164.078 87.1236 164.047C88.0844 164.017 88.9218 163.775 89.6357 163.323C90.3403 162.871 90.8856 162.256 91.2717 161.478C91.6486 160.709 91.8212 159.826 91.7893 158.828C91.7574 157.83 91.5287 156.954 91.1031 156.202C90.6682 155.45 90.0848 154.871 89.3528 154.465ZM84.9592 155.488C85.4901 155.154 86.1147 154.975 86.833 154.952C87.5513 154.929 88.1907 155.067 88.7513 155.367C89.3028 155.676 89.742 156.124 90.0689 156.712C90.3867 157.308 90.5591 158.027 90.5859 158.866C90.6127 159.706 90.4864 160.429 90.207 161.035C89.9182 161.642 89.5084 162.113 88.9774 162.447C88.4375 162.791 87.8084 162.975 87.0901 162.998C86.3718 163.021 85.7369 162.878 85.1854 162.568C84.6249 162.269 84.1858 161.825 83.8682 161.238C83.5413 160.651 83.3644 159.937 83.3376 159.098C83.3108 158.258 83.4416 157.53 83.7301 156.914C84.0095 156.307 84.4192 155.832 84.9592 155.488ZM70.1357 152.289C70.7916 152.435 71.3598 152.696 71.8404 153.071C72.3098 153.453 72.6431 153.953 72.84 154.57C73.037 155.188 73.041 155.921 72.8521 156.768L71.5053 162.807L70.3575 162.551L71.7073 156.498C71.9145 155.569 71.8416 154.845 71.4887 154.326C71.1358 153.808 70.5995 153.468 69.8798 153.308C69.1602 153.147 68.535 153.228 68.0043 153.55C67.4736 153.871 67.1046 154.496 66.8974 155.426L65.5477 161.479L64.3999 161.223L65.7466 155.183C65.9355 154.336 66.2503 153.675 66.691 153.199C67.1317 152.724 67.6503 152.414 68.2467 152.27C68.841 152.134 69.4707 152.141 70.1357 152.289ZM35.9003 146.776L42.3773 139.422L40.1184 137.432C38.8227 136.291 37.5832 135.778 36.4002 135.893C35.204 136.008 34.1093 136.63 33.1161 137.757C32.1045 138.906 31.6169 140.081 31.6535 141.282C31.683 142.477 32.3456 143.646 33.6414 144.787L35.9003 146.776ZM39.4918 138.186L40.8471 139.38L35.6654 145.263L34.3101 144.07C33.5957 143.441 33.1332 142.822 32.9227 142.214C32.7052 141.599 32.6997 140.991 32.9062 140.389C33.1127 139.788 33.4874 139.179 34.0302 138.562C34.5607 137.96 35.1113 137.518 35.682 137.238C36.2466 136.964 36.8474 136.896 37.4844 137.034C38.1082 137.173 38.7773 137.557 39.4918 138.186ZM29.5224 126.078L21.4198 131.59L19.6401 128.974C19.2095 128.342 18.962 127.754 18.8973 127.211C18.8327 126.668 18.916 126.176 19.1475 125.737C19.3789 125.297 19.7145 124.928 20.1544 124.628C20.6637 124.282 21.2173 124.108 21.8153 124.108C22.4081 124.1 22.9862 124.327 23.5497 124.79L25.8289 120.649L26.6086 121.795L24.3816 125.715L24.4289 125.784L25.5157 127.381L28.8609 125.105L29.5224 126.078ZM24.7517 127.901L23.6807 126.327C23.2554 125.702 22.7952 125.349 22.3 125.268C21.8048 125.187 21.3218 125.307 20.8511 125.627C20.3727 125.953 20.0917 126.353 20.0081 126.827C19.9116 127.3 20.0812 127.856 20.517 128.496L21.5802 130.059L24.7517 127.901ZM11.9621 114.577L21.181 111.253L19.1246 105.55L18.2159 105.878L19.8733 110.474L16.5808 111.661L15.0659 107.46L14.1703 107.783L15.6853 111.984L12.4718 113.143L10.8144 108.547L9.90567 108.874L11.9621 114.577ZM16.8104 95.8422L6.71263 93.1738L6.59472 91.9334L16.0103 87.4242L16.1282 88.6646L13.7043 89.795L14.0991 93.9483L16.6939 94.6158L16.8104 95.8422ZM13.1182 93.69L12.7897 90.2335L8.13168 92.4201L13.1182 93.69ZM6.50192 77.6479L16.1821 79.176L16.3654 78.0144L8.77343 76.8159L15.4934 74.5601L15.6309 73.6889L9.91873 69.4707L17.5246 70.6713L17.7079 69.5097L8.02778 67.9816L7.81167 69.3507L14.0144 73.8731L6.71585 76.2927L6.50192 77.6479Z" fill="#EBFF00"/>
</svg>
